PathFileType	4	(X/Y/Z)	pose_F01_0-77.trc
DataRate	CameraRate	NumFrames	NumMarkers	Units	OrigDataRate	OrigDataStartFrame	OrigNumFrames
30	30	4	21	m	30	48	77
Frame#	Time	CHip			RHip			RKnee			RAnkle			RBigToe			RSmallToe			RHeel			LHip			LKnee			LAnkle			LBigToe			LSmallToe			LHeel			Neck			Nose			RShoulder			RElbow			RWrist			LShoulder			LElbow			LWrist			
		X1	Y1	Z1	X2	Y2	Z2	X3	Y3	Z3	X4	Y4	Z4	X5	Y5	Z5	X6	Y6	Z6	X7	Y7	Z7	X8	Y8	Z8	X9	Y9	Z9	X10	Y10	Z10	X11	Y11	Z11	X12	Y12	Z12	X13	Y13	Z13	X14	Y14	Z14	X15	Y15	Z15	X16	Y16	Z16	X17	Y17	Z17	X18	Y18	Z18	X19	Y19	Z19	X20	Y20	Z20	X21	Y21	Z21	
48	1.6	-0.24308200802467125	1.871103977129272	-0.491283988697394	-0.24561156646080165	1.8677936889970685	-0.43019759005511365	-0.21369015982630238	1.7053227597700544	-0.41238884501239154	-0.23665535676155708	1.5463452804270204	-0.3195667577379276	-0.20458140230209793	1.5067558087961328	-0.3464922436896281	-0.21377329480301743	1.508102192029191	-0.306389945589911	-0.25070982397824837	1.5398045673519625	-0.30794366036630716	-0.23840681214088388	1.873409589786252	-0.548678079501158	-0.23746750842191797	1.714047975809081	-0.5619659541621537	-0.27203293885457586	1.5914290279741454	-0.5224879218180404	-0.2435782340890342	1.5676857996148317	-0.5862302882045577	-0.2506338839289269	1.574704142573908	-0.6010508689139827	-0.27198747004910384	1.582102357953932	-0.508148131351594	-0.2360474709561859	2.0380625022545873	-0.4931843106836613	-0.2069249306109852	2.111407088535562	-0.513619603647572	-0.24453905090734937	2.0347401341364897	-0.4038345909012577	-0.18858565186682702	1.9849526436433338	-0.454748196745943	-0.1649802899725619	2.0507593159273436	-0.4840914594675858	-0.2332413369578834	2.042350886612731	-0.5724749838318853	-0.21723026113438493	1.9645253192132603	-0.6287267831133991	-0.20451866801628818	2.0054812291045425	-0.6050770454856794
49	1.6333333333333333	-0.24213011395020992	1.8726773628046793	-0.4969458501407945	-0.24565730970219934	1.8694190337214638	-0.4307005040924357	-0.2156257078737016	1.7051861878334542	-0.4104350762609105	-0.23721184760584219	1.543408444439267	-0.3187344733817327	-0.20484421612347617	1.5079654664256419	-0.34658011184827703	-0.21202186736627385	1.5083926615572707	-0.3084873453004681	-0.2524184313406816	1.5390559589628487	-0.3113009585418061	-0.23443262004991872	1.8751393704175106	-0.5533688419223806	-0.23756338381562153	1.7153046140552624	-0.5619764145281526	-0.2712115241068252	1.5926957859118083	-0.5191147578084113	-0.24261383950138402	1.5655079827634168	-0.5866774423780685	-0.25137684998291354	1.5747887888921517	-0.6003070516010025	-0.27198747004910384	1.582102357953932	-0.508148131351594	-0.23690498655482095	2.039279380625958	-0.4961854296091878	-0.2087990844667496	2.111690674215925	-0.5197259366095077	-0.24464841236899695	2.0336718189398773	-0.4039322963845194	-0.1885872458389874	1.9875894933163618	-0.4641049568089186	-0.1666682706466568	2.053236406799285	-0.4894211510366567	-0.23215626368710182	2.0424850998956883	-0.5776854918182065	-0.21714376900354573	1.966922204506053	-0.6290413985762949	-0.20193565003678965	2.00932580989914	-0.59702497990592
50	1.6666666666666667	-0.24305505726244866	1.8752346109906246	-0.5006648116685511	-0.24789626011310562	1.872498824699541	-0.43772378887045954	-0.21621550084718272	1.7071047506309551	-0.41435209678436613	-0.2385201339595225	1.5447859321959947	-0.32167744602432463	-0.20493424163432403	1.508370833075058	-0.3465567692979081	-0.21420174254776075	1.5101747003319932	-0.30608483658692776	-0.2525502020382557	1.5399891781502222	-0.31103696684891374	-0.23350660553281696	1.8782942484979797	-0.5593556681005144	-0.23418796051995078	1.7180933026379208	-0.5617524250779419	-0.2709887634810069	1.591107532206134	-0.519349403554395	-0.24343164174000395	1.566773364547744	-0.5861562390069645	-0.2521198160369002	1.5748734352103955	-0.5995632342880224	-0.27198747004910384	1.582102357953932	-0.508148131351594	-0.2368992970761547	2.039391135283074	-0.4962328177468268	-0.21171372820211007	2.1118570584176513	-0.5206142561941726	-0.24158920659420965	2.0344359944107837	-0.40218284623999184	-0.19030639495760707	1.9873667224581621	-0.47003967163221905	-0.16905370145976453	2.045492757532197	-0.49421125546286165	-0.23223349861560316	2.0439178390822454	-0.5782423828532048	-0.21782991393507675	1.9693082234564303	-0.6322583814674162	-0.20531909256193653	2.008775236235833	-0.6086775866854023
51	1.7	-0.24498271434081928	1.8737338667117445	-0.4982609578068631	-0.24770465227637586	1.872252119127555	-0.4376501413695472	-0.21685846214041488	1.712127713764878	-0.4143376468268222	-0.23771012583195145	1.5435779464348973	-0.31784901449571396	-0.2032329354728719	1.5097085769708931	-0.3483446527466737	-0.21203753842611184	1.509329911157503	-0.3082135131159961	-0.25264016182327936	1.5380855467191537	-0.3104509678380208	-0.23742869459660706	1.8779022359274238	-0.554801281761017	-0.23539387647996016	1.7170670830312327	-0.5644632185276136	-0.27166620298337574	1.5896205105451537	-0.522856011464333	-0.24093548455960792	1.5651305893616811	-0.5883660781351115	-0.25099771121353204	1.5745962285993953	-0.6006424776004822	-0.27198747004910384	1.582102357953932	-0.508148131351594	-0.23789387282701072	2.0395479295884824	-0.4992892887056489	-0.2125969407869489	2.114409582464802	-0.5242258980086031	-0.24550029738934262	2.035983023698583	-0.40699289410624306	-0.19036889548378316	1.9903048067533677	-0.4710121402128769	-0.16772142124870734	2.0593368778000745	-0.501735967546706	-0.23308328181773547	2.044990547232463	-0.581120467226565	-0.21880105098366967	1.9688386137200045	-0.6353746471360303	-0.20388909583381945	2.0078736594810715	-0.6034500466219261
